<svg xmlns="http://www.w3.org/2000/svg" width="800" height="400" viewBox="0 0 800 400">
  <defs>
    <linearGradient id="oceanDeep" x1="0%" y1="0%" x2="0%" y2="100%">
      <stop offset="0%" style="stop-color:#000810;stop-opacity:1" />
      <stop offset="30%" style="stop-color:#001025;stop-opacity:1" />
      <stop offset="60%" style="stop-color:#001a3a;stop-opacity:1" />
      <stop offset="100%" style="stop-color:#000d20;stop-opacity:1" />
    </linearGradient>

    <filter id="bioGlow" x="-50%" y="-50%" width="200%" height="200%">
      <feGaussianBlur stdDeviation="6" result="blur1"/>
      <feGaussianBlur stdDeviation="14" result="blur2"/>
      <feGaussianBlur stdDeviation="25" result="blur3"/>
      <feMerge>
        <feMergeNode in="blur3"/>
        <feMergeNode in="blur2"/>
        <feMergeNode in="blur1"/>
        <feMergeNode in="SourceGraphic"/>
      </feMerge>
    </filter>

    <filter id="deepAura" x="-100%" y="-100%" width="300%" height="300%">
      <feGaussianBlur stdDeviation="35" result="bigBlur"/>
      <feColorMatrix in="bigBlur" type="matrix" 
        values="0 0 0 0 0 
                0 0.2 0 0 0.3
                0 0 0.8 0 0.9
                0 0 0 0.5 0" result="coloredBlur"/>
      <feMerge>
        <feMergeNode in="coloredBlur"/>
        <feMergeNode in="SourceGraphic"/>
      </feMerge>
    </filter>

    <filter id="textGlow" x="-20%" y="-20%" width="140%" height="140%">
      <feGaussianBlur stdDeviation="3" result="glow"/>
      <feMerge>
        <feMergeNode in="glow"/>
        <feMergeNode in="SourceGraphic"/>
      </feMerge>
    </filter>

    <filter id="sharkShadow" x="-5%" y="-5%" width="110%" height="110%">
      <feGaussianBlur stdDeviation="4"/>
    </filter>

    <filter id="mathGlow" x="-30%" y="-30%" width="160%" height="160%">
      <feGaussianBlur stdDeviation="2" result="glow"/>
      <feMerge>
        <feMergeNode in="glow"/>
        <feMergeNode in="SourceGraphic"/>
      </feMerge>
    </filter>

    <filter id="caustics">
      <feTurbulence type="fractalNoise" baseFrequency="0.015" numOctaves="3" seed="5" result="noise"/>
      <feColorMatrix in="noise" type="matrix"
        values="0 0 0 0 0
                0 0 0 0 0.1
                0 0 0 0 0.2
                0 0 0 0.08 0" result="colorNoise"/>
    </filter>

    <linearGradient id="lightRay1" x1="30%" y1="0%" x2="35%" y2="100%">
      <stop offset="0%" style="stop-color:#0066aa;stop-opacity:0.06" />
      <stop offset="100%" style="stop-color:#003366;stop-opacity:0" />
    </linearGradient>
    <linearGradient id="lightRay2" x1="55%" y1="0%" x2="50%" y2="100%">
      <stop offset="0%" style="stop-color:#0077bb;stop-opacity:0.04" />
      <stop offset="100%" style="stop-color:#003366;stop-opacity:0" />
    </linearGradient>
    <linearGradient id="lightRay3" x1="70%" y1="0%" x2="72%" y2="100%">
      <stop offset="0%" style="stop-color:#0055aa;stop-opacity:0.05" />
      <stop offset="100%" style="stop-color:#002244;stop-opacity:0" />
    </linearGradient>

    <radialGradient id="megAura" cx="50%" cy="38%" r="35%">
      <stop offset="0%" style="stop-color:#0088cc;stop-opacity:0.14" />
      <stop offset="50%" style="stop-color:#004488;stop-opacity:0.07" />
      <stop offset="100%" style="stop-color:#001133;stop-opacity:0" />
    </radialGradient>
  </defs>

  <!-- Deep ocean background -->
  <rect width="800" height="400" fill="url(#oceanDeep)"/>
  <rect width="800" height="400" filter="url(#caustics)" opacity="0.5"/>

  <!-- Light rays -->
  <polygon points="200,0 280,400 220,400 140,0" fill="url(#lightRay1)"/>
  <polygon points="400,0 450,400 380,400 330,0" fill="url(#lightRay2)"/>
  <polygon points="550,0 600,400 540,400 490,0" fill="url(#lightRay3)"/>

  <!-- Floating math formulas -->
  <g filter="url(#mathGlow)">
    <text x="85" y="65" font-family="'Georgia', serif" font-style="italic" font-size="11" fill="#0066aa" opacity="0.12">∇²ψ + (2m/ℏ²)(E-V)ψ = 0</text>
    <text x="580" y="45" font-family="'Georgia', serif" font-style="italic" font-size="10" fill="#0055aa" opacity="0.10">H|ψ⟩ = E|ψ⟩</text>
    <text x="620" y="95" font-family="'Georgia', serif" font-style="italic" font-size="9" fill="#004499" opacity="0.09">e^(iπ) + 1 = 0</text>
    <text x="50" y="340" font-family="'Georgia', serif" font-style="italic" font-size="10" fill="#005599" opacity="0.10">ζ(s) = Σ n^(-s)</text>
    <text x="620" y="350" font-family="'Georgia', serif" font-style="italic" font-size="9" fill="#004488" opacity="0.08">p ≡ 3 mod 4</text>
    <text x="140" y="130" font-family="'Georgia', serif" font-style="italic" font-size="8" fill="#003377" opacity="0.07">LWE: b = As + e</text>
    <text x="630" y="180" font-family="'Georgia', serif" font-style="italic" font-size="9" fill="#004488" opacity="0.08">det(L) = ∏λᵢ</text>
    <text x="70" y="240" font-family="'Georgia', serif" font-style="italic" font-size="8" fill="#003366" opacity="0.07">GapSVP → LWE</text>
    <text x="680" y="270" font-family="'Georgia', serif" font-style="italic" font-size="10" fill="#005588" opacity="0.09">∀ε>0: δ^n → 0</text>
    <text x="160" y="380" font-family="'Georgia', serif" font-style="italic" font-size="8" fill="#004477" opacity="0.07">MLWE(n,q,χ)</text>
    <text x="500" y="390" font-family="'Georgia', serif" font-style="italic" font-size="8" fill="#003366" opacity="0.06">R_q = Z_q[x]/(x^n+1)</text>
  </g>

  <!-- Marine snow -->
  <circle cx="150" cy="90" r="1.2" fill="#4499bb" opacity="0.3">
    <animate attributeName="cy" values="90;95;90" dur="6s" repeatCount="indefinite"/>
    <animate attributeName="opacity" values="0.2;0.4;0.2" dur="4s" repeatCount="indefinite"/>
  </circle>
  <circle cx="650" cy="130" r="0.8" fill="#3388aa" opacity="0.25">
    <animate attributeName="cy" values="130;138;130" dur="7s" repeatCount="indefinite"/>
  </circle>
  <circle cx="720" cy="320" r="1.5" fill="#4488bb" opacity="0.2">
    <animate attributeName="cy" values="320;330;320" dur="9s" repeatCount="indefinite"/>
  </circle>
  <circle cx="500" cy="60" r="1.1" fill="#77aacc" opacity="0.2">
    <animate attributeName="cy" values="60;66;60" dur="5.5s" repeatCount="indefinite"/>
  </circle>

  <!-- MASSIVE DARK SHARK SHADOW behind MEG -->
  <g filter="url(#sharkShadow)" opacity="0.16">
    <path d="
      M 60,185 C 80,140 120,100 180,75 C 230,55 300,45 370,45
      C 420,45 460,48 500,55 C 560,68 610,90 660,125
      C 700,150 730,175 760,185 C 740,188 720,190 710,195
      C 700,200 695,198 685,190 C 660,210 610,235 560,250
      C 500,270 420,275 350,270 C 280,265 210,250 160,230
      C 120,215 90,200 60,185 Z
    " fill="#001a33"/>
    <path d="M 60,185 C 40,183 20,182 5,185 C 20,188 40,188 60,185 Z" fill="#001528"/>
    <path d="M 350,45 C 340,20 360,-15 390,-40 C 400,-25 405,0 410,45 Z" fill="#001a33"/>
    <path d="M 730,175 C 755,145 775,110 795,80 C 785,110 780,140 760,170 Z" fill="#00152a"/>
    <path d="M 730,195 C 755,225 775,260 795,290 C 785,260 780,230 760,200 Z" fill="#00152a"/>
    <path d="M 300,230 C 270,270 230,310 180,345 C 210,320 250,285 290,245 Z" fill="#001528"/>
    <line x1="220" y1="120" x2="215" y2="165" stroke="#000d1a" stroke-width="3" opacity="0.5"/>
    <line x1="240" y1="112" x2="235" y2="157" stroke="#000d1a" stroke-width="3" opacity="0.5"/>
    <line x1="260" y1="106" x2="255" y2="151" stroke="#000d1a" stroke-width="3" opacity="0.5"/>
    <line x1="280" y1="100" x2="275" y2="145" stroke="#000d1a" stroke-width="3" opacity="0.5"/>
    <line x1="300" y1="96" x2="295" y2="138" stroke="#000d1a" stroke-width="3" opacity="0.5"/>
    <ellipse cx="140" cy="160" rx="15" ry="12" fill="#000d1a"/>
    <ellipse cx="143" cy="160" rx="6" ry="10" fill="#000408"/>
    <path d="M 80,187 L 85,197 L 90,187 Z" fill="#001a30" opacity="0.5"/>
    <path d="M 105,189 L 110,200 L 115,189 Z" fill="#001a30" opacity="0.5"/>
    <path d="M 130,190 L 136,202 L 142,190 Z" fill="#001a30" opacity="0.5"/>
    <path d="M 158,192 L 164,204 L 170,192 Z" fill="#001a30" opacity="0.5"/>
  </g>

  <!-- Aura -->
  <ellipse cx="400" cy="160" rx="220" ry="100" fill="url(#megAura)"/>

  <!-- MEG — Layer 1: Dark blue thick outline -->
  <text x="400" y="200" 
    font-family="'Arial Black', 'Impact', sans-serif" 
    font-weight="900" 
    font-size="150" 
    fill="none"
    stroke="#001122"
    stroke-width="14"
    stroke-linejoin="round"
    text-anchor="middle" 
    letter-spacing="25">
    MEG
  </text>

  <!-- MEG — Layer 2: Medium dark blue outline -->
  <text x="400" y="200" 
    font-family="'Arial Black', 'Impact', sans-serif" 
    font-weight="900" 
    font-size="150" 
    fill="none"
    stroke="#002244"
    stroke-width="8"
    stroke-linejoin="round"
    text-anchor="middle" 
    letter-spacing="25">
    MEG
  </text>

  <!-- MEG — Layer 3: Neon blue fill with deep aura -->
  <text x="400" y="200" 
    font-family="'Arial Black', 'Impact', sans-serif" 
    font-weight="900" 
    font-size="150" 
    fill="#0099dd" 
    text-anchor="middle" 
    letter-spacing="25"
    filter="url(#deepAura)">
    MEG
  </text>
  
  <!-- MEG — Layer 4: Bioluminescent glow -->
  <text x="400" y="200" 
    font-family="'Arial Black', 'Impact', sans-serif" 
    font-weight="900" 
    font-size="150" 
    fill="#33bbee" 
    text-anchor="middle" 
    letter-spacing="25"
    filter="url(#bioGlow)"
    opacity="0.5">
    MEG
  </text>

  <!-- MEG — Layer 5: Bright inner highlight -->
  <text x="400" y="200" 
    font-family="'Arial Black', 'Impact', sans-serif" 
    font-weight="900" 
    font-size="150" 
    fill="#88ddff" 
    text-anchor="middle" 
    letter-spacing="25"
    opacity="0.15">
    MEG
  </text>

  <!-- Separator -->
  <line x1="200" y1="225" x2="600" y2="225" stroke="#0077aa" stroke-width="0.8" opacity="0.25"/>

  <!-- MEGALODON -->
  <text x="400" y="268" 
    font-family="'Courier New', monospace" 
    font-weight="700" 
    font-size="24" 
    fill="#0099cc" 
    text-anchor="middle" 
    letter-spacing="14"
    filter="url(#textGlow)"
    opacity="0.8">
    MEGALODON
  </text>

  <!-- Title -->
  <text x="400" y="310" 
    font-family="'Georgia', serif" 
    font-style="italic"
    font-size="13" 
    fill="#55aacc" 
    text-anchor="middle" 
    letter-spacing="3"
    opacity="0.6">
    Prof. of Quantum Cryptomathematics
  </text>

  <!-- Tagline -->
  <text x="400" y="345" 
    font-family="'Courier New', monospace" 
    font-size="9" 
    fill="#0088aa" 
    text-anchor="middle" 
    letter-spacing="5"
    opacity="0.35">
    CRYPTANALYST · SECURITY RESEARCHER · BREAKER OF CODES
  </text>

  <!-- Depth indicators -->
  <text x="30" y="390" 
    font-family="'Courier New', monospace" 
    font-size="8" 
    fill="#004466" 
    opacity="0.2">
    DEPTH: ████████ 11.034m
  </text>
  <text x="680" y="390" 
    font-family="'Courier New', monospace" 
    font-size="8" 
    fill="#004466" 
    opacity="0.2">
    PRESSURE: 1100 ATM
  </text>
</svg>
